<svg width="130" height="22" viewBox="0 0 130 22" fill="none" xmlns="http://www.w3.org/2000/svg">
<path d="M23.8408 18.7778C23.5574 18.7778 23.3323 18.7111 23.1656 18.5778C22.9989 18.4296 22.8988 18.2519 22.8655 18.0444L20.1396 3.84444C20.123 3.8 20.1146 3.74815 20.1146 3.68889C20.1146 3.57037 20.1646 3.46667 20.2647 3.37778C20.3814 3.27407 20.5064 3.22222 20.6398 3.22222H23.7408C24.2076 3.22222 24.466 3.38519 24.516 3.71111L26.1415 12.3778L27.9421 7.26667C28.1255 6.86667 28.4006 6.66667 28.7673 6.66667H30.5679C30.9847 6.66667 31.2598 6.86667 31.3932 7.26667L33.1937 12.3778L34.8193 3.71111C34.8693 3.38519 35.1277 3.22222 35.5945 3.22222H38.6955C38.8455 3.22222 38.9706 3.27407 39.0706 3.37778C39.1873 3.46667 39.2456 3.57037 39.2456 3.68889L39.2206 3.84444L36.4948 18.0444C36.4614 18.2519 36.3531 18.4296 36.1697 18.5778C36.003 18.7111 35.7862 18.7778 35.5195 18.7778H33.1437C32.877 18.7778 32.6686 18.7185 32.5185 18.6C32.3685 18.4815 32.2601 18.3481 32.1934 18.2L29.6676 11.8444L27.1418 18.2C26.9918 18.5852 26.6834 18.7778 26.2165 18.7778H23.8408Z" fill="#333333"/>
<path d="M48.7797 19C46.429 19 44.5784 18.4889 43.228 17.4667C41.8775 16.4444 41.1606 14.9407 41.0773 12.9556C41.0606 12.5259 41.0523 11.8889 41.0523 11.0444C41.0523 10.1852 41.0606 9.54074 41.0773 9.11111C41.1606 7.15556 41.8859 5.65185 43.253 4.6C44.6367 3.53333 46.479 3 48.7797 3C51.0804 3 52.9227 3.53333 54.3064 4.6C55.6902 5.65185 56.4154 7.15556 56.4821 9.11111C56.5155 9.97037 56.5321 10.6148 56.5321 11.0444C56.5321 11.4593 56.5155 12.0963 56.4821 12.9556C56.3988 14.9407 55.6819 16.4444 54.3314 17.4667C52.981 18.4889 51.1304 19 48.7797 19ZM48.7797 15.8C49.6967 15.8 50.4219 15.5556 50.9554 15.0667C51.5056 14.5778 51.7973 13.8296 51.8307 12.8222C51.864 11.963 51.8807 11.3556 51.8807 11C51.8807 10.6148 51.864 10.0074 51.8307 9.17778C51.7973 8.17037 51.5056 7.42222 50.9554 6.93333C50.4052 6.44444 49.68 6.2 48.7797 6.2C47.8794 6.2 47.1542 6.44444 46.604 6.93333C46.0705 7.42222 45.7788 8.17037 45.7287 9.17778C45.7121 9.59259 45.7037 10.2 45.7037 11C45.7037 11.7852 45.7121 12.3926 45.7287 12.8222C45.7788 13.8296 46.0705 14.5778 46.604 15.0667C47.1375 15.5556 47.8627 15.8 48.7797 15.8Z" fill="#333333"/>
<path d="M62.0364 18.7778C61.753 18.7778 61.5279 18.7111 61.3612 18.5778C61.1945 18.4296 61.0944 18.2519 61.0611 18.0444L58.3352 3.84444C58.3186 3.8 58.3102 3.74815 58.3102 3.68889C58.3102 3.57037 58.3603 3.46667 58.4603 3.37778C58.577 3.27407 58.702 3.22222 58.8354 3.22222H61.9364C62.4032 3.22222 62.6616 3.38519 62.7116 3.71111L64.3371 12.3778L66.1377 7.26667C66.3211 6.86667 66.5962 6.66667 66.963 6.66667H68.7635C69.1803 6.66667 69.4554 6.86667 69.5888 7.26667L71.3894 12.3778L73.0149 3.71111C73.0649 3.38519 73.3233 3.22222 73.7901 3.22222H76.8911C77.0411 3.22222 77.1662 3.27407 77.2662 3.37778C77.3829 3.46667 77.4413 3.57037 77.4413 3.68889L77.4162 3.84444L74.6904 18.0444C74.657 18.2519 74.5487 18.4296 74.3653 18.5778C74.1986 18.7111 73.9818 18.7778 73.7151 18.7778H71.3393C71.0726 18.7778 70.8642 18.7185 70.7141 18.6C70.5641 18.4815 70.4557 18.3481 70.389 18.2L67.8632 11.8444L65.3375 18.2C65.1874 18.5852 64.879 18.7778 64.4122 18.7778H62.0364Z" fill="#333333"/>
<g clip-path="url(#clip0)">
<rect y="22" width="7.33333" height="7.04011" transform="rotate(-90 0 22)" fill="#F3CC3F"/>
<rect x="7.0401" y="22" width="7.33333" height="7.04011" transform="rotate(-90 7.0401 22)" fill="#333333"/>
<rect y="14.6667" width="7.33333" height="7.04011" transform="rotate(-90 0 14.6667)" fill="#333333"/>
<rect x="7.0401" y="14.6667" width="7.33333" height="7.04011" transform="rotate(-90 7.0401 14.6667)" fill="#F3CC3F"/>
<rect y="7.33325" width="7.33333" height="7.04011" transform="rotate(-90 0 7.33325)" fill="#F3CC3F"/>
<rect x="7.0401" y="7.33325" width="7.33333" height="7.04011" transform="rotate(-90 7.0401 7.33325)" fill="#333333"/>
</g>
<path d="M84.694 19C84.5407 19 84.4028 18.9467 84.2802 18.84C84.1729 18.7181 84.1193 18.581 84.1193 18.4286V6.58857H80.0274C79.8741 6.58857 79.7362 6.53524 79.6136 6.42857C79.5063 6.30667 79.4527 6.16952 79.4527 6.01714V3.57143C79.4527 3.40381 79.5063 3.26667 79.6136 3.16C79.7362 3.05333 79.8741 3 80.0274 3H92.395C92.5636 3 92.7015 3.05333 92.8088 3.16C92.9161 3.26667 92.9697 3.40381 92.9697 3.57143V6.01714C92.9697 6.18476 92.9161 6.32191 92.8088 6.42857C92.7015 6.53524 92.5636 6.58857 92.395 6.58857H88.3031V18.4286C88.3031 18.581 88.2495 18.7181 88.1422 18.84C88.0349 18.9467 87.897 19 87.7284 19H84.694Z" fill="#F3CC3F"/>
<path d="M92.5006 19C92.378 19 92.2631 18.9543 92.1558 18.8629C92.0638 18.7562 92.0179 18.6419 92.0179 18.52C92.0179 18.4286 92.0255 18.36 92.0408 18.3143L97.4431 3.64C97.489 3.45714 97.5886 3.30476 97.7419 3.18286C97.8952 3.06095 98.0944 3 98.3396 3H101.742C101.987 3 102.186 3.06095 102.34 3.18286C102.493 3.30476 102.592 3.45714 102.638 3.64L108.018 18.3143L108.064 18.52C108.064 18.6419 108.01 18.7562 107.903 18.8629C107.811 18.9543 107.696 19 107.558 19H104.73C104.362 19 104.117 18.84 103.995 18.52L103.098 16.1886H96.9603L96.0868 18.52C95.9642 18.84 95.7113 19 95.3282 19H92.5006ZM102.179 12.8971L100.041 6.86286L97.9028 12.8971H102.179Z" fill="#F3CC3F"/>
<path d="M109.025 19C108.887 19 108.764 18.9543 108.657 18.8629C108.565 18.7562 108.519 18.6419 108.519 18.52C108.519 18.4133 108.55 18.3219 108.611 18.2457L113.623 10.84L108.979 3.75429C108.933 3.66286 108.91 3.57143 108.91 3.48C108.91 3.3581 108.956 3.25143 109.048 3.16C109.14 3.05333 109.255 3 109.393 3H112.726C112.91 3 113.063 3.04571 113.186 3.13714C113.308 3.22857 113.423 3.34286 113.531 3.48L116.266 7.61714L119.048 3.48C119.247 3.16 119.515 3 119.852 3H123.025C123.147 3 123.255 3.05333 123.347 3.16C123.454 3.25143 123.507 3.3581 123.507 3.48C123.507 3.58667 123.477 3.6781 123.416 3.75429L118.749 10.8171L123.806 18.2457C123.852 18.3067 123.875 18.3981 123.875 18.52C123.875 18.6419 123.829 18.7562 123.737 18.8629C123.645 18.9543 123.53 19 123.393 19H119.967C119.645 19 119.377 18.8476 119.163 18.5429L116.128 14.1543L113.117 18.5429C112.948 18.8476 112.688 19 112.335 19H109.025Z" fill="#F3CC3F"/>
<path d="M126.322 19C126.169 19 126.031 18.9467 125.908 18.84C125.801 18.7181 125.747 18.581 125.747 18.4286V3.57143C125.747 3.40381 125.801 3.26667 125.908 3.16C126.031 3.05333 126.169 3 126.322 3H129.402C129.571 3 129.709 3.05333 129.816 3.16C129.939 3.26667 130 3.40381 130 3.57143V18.4286C130 18.5962 129.939 18.7333 129.816 18.84C129.709 18.9467 129.571 19 129.402 19H126.322Z" fill="#F3CC3F"/>
<defs>
<clipPath id="clip0">
<rect y="22" width="22" height="14.0802" rx="4" transform="rotate(-90 0 22)" fill="white"/>
</clipPath>
</defs>
</svg>
